:SAMPLES-PER-SECOND 24
:FULLY-SPECIFIED
:DEGREES
266
root  3.46759 41.7185 36.6882 5.30696 -3.40182 -5.3589
RightUpLeg  -11.0658 -16.1917 0.828502
RightLeg  25.3005 -7.31949 -3.98686
RightFoot  0.642043 -0.846474 8.08862
RightToes  -2.08645e-008 3.77894e-005 6.81332e-007
Spine  -6.91743 2.35418 6.19684
Spine1  7.57737 1.73734 0.601894
HEad  -24.5592 6.95908 5.65306
LeftShoulder1  6.95089 -12.9275 -36.2555
LeftArm  7.78396 27.8665 -27.4844
LeftForeArm  162.16 -65.5985 -157.546
LeftHand  -0.252803 -2.48657 3.93787
RightShoulder  4.19052 7.00527 33.985
RightArm  25.0306 -23.9881 24.5872
RightForeArm  145.767 76.4742 135.358
RightHand  0.000664537 8.88506 -0.386025
LeftUpLeg  -9.55742 0.853946 1.82539
LeftLeg  5.52587 -2.16842 -1.36204
LeftFoot  5.11761 1.55573 -11.0819
LeftToes  1.24767e-006 1.47042e-008 1.32732e-009
267
root  3.46115 41.6137 35.9117 6.37759 -9.97801 -5.59221
RightUpLeg  -8.87622 -16.2313 -1.16962
RightLeg  31.2304 -10.0316 -6.75277
RightFoot  3.45382 -0.974743 7.66041
RightToes  -2.08645e-008 3.77894e-005 6.81332e-007
Spine  -7.89816 2.8354 8.45534
Spine1  8.21293 2.44225 -0.740863
HEad  -24.2539 9.70662 5.15666
LeftShoulder1  6.67337 -12.7176 -35.1135
LeftArm  7.74456 28.084 -27.0982
LeftForeArm  163.325 -63.8492 -159.276
LeftHand  -0.191237 -2.66951 2.9722
RightShoulder  4.14404 7.01571 33.5072
RightArm  24.7167 -24.2228 23.3339
RightForeArm  149.244 74.9322 140.711
RightHand  -0.185715 7.7026 -2.02334
LeftUpLeg  -9.84027 -0.123863 2.90315
LeftLeg  11.5387 -9.32449 -2.01786
LeftFoot  2.09051 1.06443 -9.10815
LeftToes  1.24767e-006 1.47042e-008 1.32732e-009
268
root  3.42487 40.9684 35.1112 6.87506 -17.4825 -4.6237
RightUpLeg  -7.35903 -13.9071 -5.21892
RightLeg  37.1888 -12.4984 -10.2504
RightFoot  5.38691 -0.637445 4.58394
RightToes  -2.08645e-008 3.77894e-005 6.81332e-007
Spine  -7.78735 3.46163 8.51256
Spine1  8.38518 3.29398 -1.09056
HEad  -25.1186 12.3902 3.79078
LeftShoulder1  6.33418 -12.2918 -34.0937
LeftArm  7.17308 26.7958 -26.8183
LeftForeArm  166.032 -62.4991 -160.658
LeftHand  -0.237818 -2.48414 3.71651
RightShoulder  3.92732 6.81862 32.1583
RightArm  23.3255 -23.4664 24.1336
RightForeArm  154.708 73.2066 145.72
RightHand  -0.397253 7.62422 -3.90219
LeftUpLeg  -10.554 -3.11703 2.48872
LeftLeg  16.4134 -9.36756 -2.77778
LeftFoot  -1.68847 0.371057 -4.27489
LeftToes  1.24767e-006 1.47042e-008 1.32732e-009
269
root  3.37233 40.1186 34.1367 7.14658 -25.1766 -3.32169
RightUpLeg  -6.96101 -9.27234 -9.31194
RightLeg  41.3446 -13.2081 -12.4148
RightFoot  7.14422 -0.176062 1.30793
RightToes  -2.08645e-008 3.77894e-005 6.81332e-007
Spine  -6.66365 4.09788 7.93726
Spine1  8.45303 4.15695 -1.56229
HEad  -27.8833 15.0031 1.0899
LeftShoulder1  6.5934 -12.4043 -35.4129
LeftArm  5.05086 23.275 -23.734
LeftForeArm  167.207 -62.3151 -160.916
LeftHand  -0.312977 -2.14294 5.01644
RightShoulder  3.86713 6.64272 32.2255
RightArm  20.1297 -20.6723 25.2892
RightForeArm  156.427 72.6447 147.13
RightHand  -0.557735 7.54059 -5.36205
LeftUpLeg  -14.1011 -2.28382 1.27589
LeftLeg  21.4179 -4.08517 -1.41776
LeftFoot  -6.48403 0.175303 -3.27863
LeftToes  1.24767e-006 1.47042e-008 1.32732e-009
270
root  3.29473 39.2299 32.9045 7.20273 -32.1071 -2.424
RightUpLeg  -6.31673 -4.90127 -12.1287
RightLeg  41.7491 -12.7345 -12.1638
RightFoot  4.41413 -0.800414 6.07982
RightToes  -2.08645e-008 3.77894e-005 6.81332e-007
Spine  -4.40165 4.25447 8.05834
Spine1  8.69337 4.79808 -3.03684
HEad  -31.8928 17.481 -2.05884
LeftShoulder1  7.22348 -12.981 -37.7217
LeftArm  1.24662 18.1221 -19.1602
LeftForeArm  165.822 -64.0501 -159.348
LeftHand  -0.434248 -1.48152 7.5089
RightShoulder  4.14747 6.84432 34.1833
RightArm  15.8082 -16.1073 27.3981
RightForeArm  150.593 75.1032 140.379
RightHand  -0.725506 6.98817 -7.13756
LeftUpLeg  -19.3701 2.13972 0.534174
LeftLeg  28.6114 0.018349 0.354373
LeftFoot  -9.8726 0.1005 -3.10892
LeftToes  1.24767e-006 1.47042e-008 1.32732e-009
271
root  3.05348 38.5784 31.5388 6.18259 -39.215 -0.725632
RightUpLeg  -4.64518 -1.62603 -14.2738
RightLeg  37.1065 -11.6957 -9.6115
RightFoot  -5.0445 -0.912505 16.8735
RightToes  -2.08645e-008 3.77894e-005 6.81332e-007
Spine  -2.50116 4.44099 6.45681
Spine1  9.53628 5.48069 -4.18965
HEad  -35.0372 19.5819 -4.7913
LeftShoulder1  7.52034 -13.3174 -38.5776
LeftArm  -3.35994 13.4762 -16.7465
LeftForeArm  164.411 -66.3877 -156.99
LeftHand  -0.499723 -0.331952 10.2529
RightShoulder  4.40677 7.11619 35.5836
RightArm  12.1171 -12.9594 31.6912
RightForeArm  139.946 77.8513 128.532
RightHand  -0.815759 6.97984 -7.98355
LeftUpLeg  -21.7217 6.8044 0.0342135
LeftLeg  32.1521 2.13389 1.80958
LeftFoot  -11.7039 0.0563553 -3.71284
LeftToes  1.24767e-006 1.47042e-008 1.32732e-009
